<svg xmlns="http://www.w3.org/2000/svg" xmlns:xlink="http://www.w3.org/1999/xlink" version="1.1">
<symbol id="gogogo" viewBox="0 0 451.13 176.63" style="touch-action: none">
    <path d="M45.08,61.21,7.51,64.71C5,54.24,2.61,44.1,0,33.09l58.28,8.32c.84,8.07,1.66,16,2.49,23.89a700.36,700.36,0,0,0,15.61,90.42c1,4.09.14,5.81-3.69,7.43-9.76,4.15-19.3,8.8-29.42,13.48L26.72,137.17l36.37,3.15C57.07,113.87,51.14,87.84,45.08,61.21Z"/>
    <path d="M131.92,133.29c-2.73-20.29-5.38-40-8.07-60.06L93.23,79.31C91.69,71.1,90.17,63,88.57,54.56h49.16c4.24,33,8.47,66.06,12.75,99.49L113,166.72c-2.76-9.89-5.43-19.43-8.27-29.62Z"/>
    <path d="M198.23,98.54h-31.7L170.6,74.1c10.65,2.26,20.78,4.75,31.05,6.44,5.16.85,6.35,2.83,6.46,8,.5,23.62,1.62,47.22,2.54,71.63L177,167.43c-.59-8.29-1.15-16.31-1.74-24.66H200C199.45,128.44,198.87,114.19,198.23,98.54Z"/>
    <path d="M235.55,106.64c.45-5.23.86-10,1.31-15.23l36.47,2c-.89,18.94-1.75,37.5-2.65,56.71l-31.49,9V139.5h23.55c0-9.38.11-18.48-.18-27.57,0-.92-2.4-2.34-3.82-2.54C251.2,108.32,243.61,107.56,235.55,106.64Z"/>
    <path d="M295.55,146.48c1.67-15.29,1.67-15.29,16-15.25,2.46,0,4.93,0,7.69,0,1.19-8.42,2.33-16.44,3.54-25l-23-2c.73-3.62,1.41-6.94,2-9.91h33.21c-2.55,8.43-4.94,15.77-7,23.22-2.19,8-4,16.15-6.12,24.18-.35,1.3-1.68,3.23-2.69,3.32C311.53,145.73,303.74,146,295.55,146.48Z"/>
    <path d="M382.93,97.08c-4.54,13.2-8.81,25.73-13.21,38.2a4.11,4.11,0,0,1-2.51,2c-7.13,2.18-14.29,4.22-22.45,6.59,1.29-4.08,2.06-7.57,3.57-10.71.54-1.13,2.85-1.93,4.39-2,12.06-.52,12.06-.45,15.64-12,1.21-3.94,2.44-7.88,3.88-12.54L351,108.43c2.47-6.57,5.66-10.66,13.07-10.29C370.15,98.45,376.29,97.5,382.93,97.08Z"/>
    <path d="M411.09,114.73l-15-1.22c-.54-8.35-.54-8.41,6.91-8.1,7.23.29,14.46.7,22.41,1.1-4.3,6.38-8.94,11.88-12,18.15-4.6,9.38-11.35,14.93-21.71,16.28a55.13,55.13,0,0,0-7.33,2c1.39-7.36,4.32-12.1,12.11-13.86C407.38,126.61,407.26,126.05,411.09,114.73Z"/>
    <path d="M70.71,5.67c6.15,2.56,8.34,6.3,8,12.88-.64,10.92.13,21.92.3,32.89a8.12,8.12,0,0,1-.44,3.28c-3.84-6.32-8.28-12.14-7.87-20.24.4-7.95-.14-15.95-.22-23.93C70.43,9,70.61,7.38,70.71,5.67Z"/>
    <path d="M64.26,0V39.61c-3.59-1.12-6.52-3-7-8-.62-6.93-2.09-13.79-2.8-20.72-.16-1.55,1-3.6,2.16-4.83C58.52,4.06,60.92,2.59,64.26,0Z"/>
    <path d="M207.87,45.86,219,47.79c-1.5,9-2.94,17.74-4.48,27-2.8-1.29-5.38-2.32-7.77-3.69a3.46,3.46,0,0,1-1.5-2.68C206,61.06,206.91,53.71,207.87,45.86Z"/>
    <path d="M225.4,88.25c-5.9-2.18-8-5.18-6.45-10.63,2-7.12,3.4-14.39,5.17-22.09,4.87,3.82,8,7.27,5.84,13.65C227.92,75.21,226.94,81.59,225.4,88.25Z"/>
    <path d="M296.45,68c-2.25,7.67-3.84,14.67-6.51,21.24-.83,2.06-4.56,2.94-7,4.37-.37-.41-.75-.82-1.13-1.22,2.08-8.64,4.16-17.28,6.39-26.52Z"/>
    <path d="M280.52,64.45C279.76,73,279,81,278.33,89c-8.55-.31-8.74-.54-7.83-8.11.26-2.14.37-4.3.6-6.44C271.91,67,272.14,66.72,280.52,64.45Z"/>
    <path d="M155,27c4.91,1.69,7.49,3.6,6.29,9.38-1.56,7.53-1.75,15.33-2.63,23.95-3.26-4.7-6.44-8.37-5.77-13.84C153.71,40.16,154.31,33.76,155,27Z"/>
    <path d="M149.22,24.31c-.51,8.6-1,16.68-1.49,25-4.34-.33-6.6-2.38-6.6-6.8,0-2.32-.19-4.64-.38-7C140.08,27.12,140.07,27.12,149.22,24.31Z"/>
    <path d="M355.31,75.33c5.13,1.56,4.74.48-1.21,18.8-3.47-1.26-5.12-3-3.32-6.91C352.5,83.46,353.75,79.49,355.31,75.33Z"/>
    <path d="M428.58,103c4.64-10.13,7-11.71,15.13-10.32-3,3.57-5.56,7.24-8.8,10.16C433.78,103.86,431,103,428.58,103Z"/>
    <path d="M435.67,104.89,446.75,93.2c1.27,1,2.31,1.86,4.38,3.51-3.85,3.52-7.24,6.86-10.94,9.81-.87.7-2.77.1-4.19.1Z"/>
    <path d="M407.55,85.5l-8.71,12.37c-4.23-6.18,1.62-8.88,3.52-12.52.56-1.07,3-1.15,4.61-1.67C407.17,84.28,407.36,84.89,407.55,85.5Z"/>
    <path d="M340,91c3.82-5.67,2.53-13.43,10.44-16.13C348.18,83.87,344.26,90.6,340,91Z"/>
    <path d="M399.48,82.82c-3.35,3-2.74,10-9.74,10.31C390.78,84.45,391.19,84,399.48,82.82Z"/>
</symbol>
</svg>