<svg xmlns="http://www.w3.org/2000/svg" xmlns:xlink="http://www.w3.org/1999/xlink" version="1.1">

<symbol id="saitama" viewBox="0 0 628 360"> 
<polygon style="fill:#0F0;stroke:#000;stroke-width:0.2;stroke-linejoin:round;" 
  points="609,325 606,318 608,303 606,300 606,296 607,288 612,276 611,273 607,257 599,245 593,234 586,229 
	579,215 578,210 574,208 575,201 568,193 570,189 568,177 570,171 569,168 565,164 556,153 552,147 549,135 547,136 547,140 
	545,141 534,137 527,137 525,135 524,124 524,120 517,112 516,107 512,101 510,97 506,83 508,73 505,69 505,68 504,65 501,67 
	499,66 498,62 493,63 491,62 493,60 491,58 486,60 486,69 475,70 473,76 466,69 461,64 455,61 426,73 409,72 408,72 393,74 383,70 
	375,62 371,61 369,57 365,53 356,50 352,44 349,40 345,39 340,35 338,36 336,34 334,34 331,41 325,43 325,44 325,48 321,49 315,46 
	313,40 310,41 300,38 297,37 294,36 294,41 288,39 283,40 279,38 273,32 267,33 267,31 264,29 260,29 247,22 246,21 243,19 229,19 
	226,16 220,25 215,30 217,31 209,44 201,59 193,69 193,76 189,78 190,89 193,93 192,95 192,97 185,97 182,100 181,112 177,113 
	174,111 173,108 171,110 169,108 166,110 163,109 164,111 161,114 158,114 154,120 149,119 146,114 143,113 141,114 139,123 
	139,126 132,133 126,137 119,133 116,135 110,135 104,139 95,142 90,148 84,150 82,156 77,161 76,164 75,165 75,168 59,171 56,173 
	51,168 47,167 38,169 35,180 32,184 29,187 28,190 24,194 19,195 17,200 16,208 17,212 19,213 21,216 24,217 26,225 30,228 29,236 
	26,241 24,242 25,243 24,247 27,250 29,249 35,252 37,251 42,253 49,253 55,257 56,268 64,271 67,276 72,274 73,274 76,276 80,275 
	84,273 88,275 90,279 91,278 95,279 99,285 103,286 106,289 107,290 109,286 116,282 123,285 126,283 132,281 132,278 133,275 
	133,273 144,266 150,262 153,265 161,263 166,255 170,254 179,260 185,266 195,271 198,270 198,269 202,269 206,272 211,274 
	234,276 240,280 242,284 243,284 255,289 262,290 264,287 267,286 276,293 280,290 282,293 287,292 291,293 299,291 301,290 
	303,293 306,292 308,294 312,294 313,301 318,300 319,304 318,306 323,317 326,319 327,320 334,318 336,319 346,320 345,324 
	348,328 346,329 350,328 352,331 351,333 350,334 351,335 353,337 357,336 357,338 360,337 363,334 371,336 372,335 379,336 
	380,334 382,336 390,334 392,332 398,330 403,327 406,328 409,327 410,328 411,326 418,324 418,322 423,322 432,311 435,314 
	434,317 430,320 433,323 433,328 428,331 423,333 420,337 435,331 434,343 435,344 439,343 439,341 443,339 447,338 446,336 
	453,333 456,328 459,328 460,329 464,331 461,332 461,334 469,333 470,336 473,335 474,328 474,327 481,321 482,316 485,316 
	491,315 501,316 507,314 510,316 511,316 515,320 522,320 524,323 529,321 531,322 531,327 535,325 535,323 539,323 542,318 
	542,316 537,309 540,307 542,307 546,304 548,304 552,310 561,311 563,309 569,309 572,308 572,305 574,308 572,314 572,316 
	575,319 581,314 585,317 590,320 591,318 599,316 600,319 598,322 600,326 606,324 "/>
</symbol>

</svg>
