<svg xmlns="http://www.w3.org/2000/svg" xmlns:xlink="http://www.w3.org/1999/xlink" version="1.1">
<symbol id="concentrate" viewBox="0 0 600 450" preserveAspectRatio="none">
  <polygon points="600,214.574 600,213.89 507.869,217.535"/>
  <polygon points="600,193.653 600,192.943 506.071,203.214"/>
  <polygon points="600,185.685 600,182.034 498.813,197.728"/>
  <polygon points="600,173.53 600,170.914 490.927,191.398"/>
  <polygon points="600,150.285 600,146.672 497.025,174.73"/>
  <polygon points="600,139.236 600,136.016 499.586,166.853"/>
  <polygon points="600,126.179 600,122.881 479.067,165.008"/>
  <polygon points="600,101.488 600,98.644 471.448,153.57"/>
  <polygon points="600,88.597 600,84.74 482.391,140.87"/>
  <polygon points="600,58.888 600,57.394 471.967,129.307"/>
  <polygon points="453.252,133.196 600,48.312 600,44.939"/>
  <polygon points="600,14.838 600,9.861 446.881,120.842"/>
  <polygon points="587.427,0 585.338,0 439.565,115.325"/>
  <polygon points="545.241,0 538.774,0 430.663,103.477"/>
  <polygon points="502.8,0 499.012,0 415.805,95.272"/>
  <polygon points="465.418,0 462.105,0 393.968,95.854"/>
  <polygon points="447.774,0 444.718,0 385.938,92.742"/>
  <polygon points="433.086,0 432.141,0 384.148,82.195"/>
  <polygon points="404.477,0 402.913,0 364.069,85.934"/>
  <polygon points="392.015,0 389.459,0 360.25,75.546"/>
  <polygon points="374.736,0 353.205,69.397 379.206,0"/>
  <polygon points="352.157,0 350.493,0 336.103,66.656"/>
  <polygon points="340.819,0 337.842,0 325.482,79.102"/>
  <polygon points="321.814,0 316.422,69.34 325.717,0"/>
  <polygon points="297.818,0 298.746,73.353 298.513,0"/>
  <polygon points="282.392,0 289.124,69.061 286.266,0"/>
  <polygon points="269.743,0 269.001,0 280.054,78.608"/>
  <polygon points="256.469,0 253.115,0 268.069,66.14"/>
  <polygon points="229.249,0 226.167,0 252.614,77.565"/>
  <polygon points="215.629,0 210.162,0 240.268,70.713"/>
  <polygon points="182.365,0 180.491,0 223.451,79.775"/>
  <polygon points="166.526,0 162.478,0 219.221,90.887"/>
  <polygon points="151.637,0 148.621,0 209.614,89.33"/>
  <polygon points="122.071,0 117.036,0 189.58,87.325"/>
  <polygon points="100.379,0 98.52,0 187.6,98.923"/>
  <polygon points="82.691,0 76.463,0 173.159,95.528"/>
  <polygon points="36.026,0 33.489,0 162.067,108.015"/>
  <polygon points="9.099,0 7.009,0 150.586,109.868"/>
  <polygon points="0,8.525 0,15.238 153.156,120.726"/>
  <polygon points="0,43.419 0,46.556 146.767,133.076"/>
  <polygon points="0,56.344 0,62.758 132.225,132.513"/>
  <polygon points="0,74.777 0,77.581 126.322,138.861"/>
  <polygon points="0,100.711 0,105.908 111.559,148.591"/>
  <polygon points="0,112.521 0,114.479 118.803,157.666"/>
  <polygon points="0,136.875 0,138.755 105.845,168.583"/>
  <polygon points="0,148.702 0,151.242 108.162,177.031"/>
  <polygon points="0,158.583 0,159.825 100.15,181.174"/>
  <polygon points="0,170.84 0,172.283 103.253,189.959"/>
  <polygon points="0,193.486 0,195.029 99.643,204.471"/>
  <polygon points="0,212.833 0,213.584 104.05,217.299"/>
  <polygon points="0,220.112 0,223.918 97.8,222.989"/>
  <polygon points="0,231.074 0,232.125 91.873,229.578"/>
  <polygon points="0,248.723 0,250.642 98.988,241.536"/>
  <polygon points="0,266.838 0,270.158 95.566,254.634"/>
  <polygon points="0,277.735 0,281.823 97.688,261.929"/>
  <polygon points="0,295.986 0,299.909 107.633,271.762"/>
  <polygon points="0,307.098 0,308.474 98.957,280.472"/>
  <polygon points="0,318.104 0,323.338 113.908,284.352"/>
  <polygon points="0,332.803 0,333.575 117.75,290.717"/>
  <polygon points="0,345.19 0,346.303 116.526,298.837"/>
  <polygon points="0,372.272 0,376.753 136.556,306.431"/>
  <polygon points="0,386.018 0,389.033 126.335,319.064"/>
  <polygon points="0,417.449 0,422.447 141.941,326.66"/>
  <polygon points="0,437.446 0,438.996 153.204,329.312"/>
  <polygon points="5.131,450 7.296,450 158.499,333.35"/>
  <polygon points="49.909,450 51.584,450 163.089,348.568"/>
  <polygon points="72.421,450 81.303,450 182.493,342.858"/>
  <polygon points="110.153,450 119.092,450 190.562,357.854"/>
  <polygon points="129.869,450 133.9,450 198.201,361.227"/>
  <polygon points="176.018,450 177.347,450 225.383,361.106"/>
  <polygon points="189.91,450 196.31,450 232.129,367.863"/>
  <polygon points="206.574,450 208.076,450 242.069,365.599"/>
  <polygon points="236.52,450 241.514,450 258.516,378.026"/>
  <polygon points="250.313,450 253.056,450 268.785,370.282"/>
  <polygon points="267.871,450 276.381,380.146 263.66,450"/>
  <polygon points="280.227,450 286.398,371.799 278.135,450"/>
  <polygon points="301.596,450 304.787,450 302.263,385.641"/>
  <polygon points="312.194,450 315.57,450 309.606,380.982"/>
  <polygon points="325.513,450 326.863,450 318.611,385.039"/>
  <polygon points="335.221,450 338.762,450 326.193,384.439"/>
  <polygon points="365.447,450 368.767,450 344.115,372.986"/>
  <polygon points="379.032,450 380.031,450 354.869,380.277"/>
  <polygon points="394.166,450 397.187,450 361.41,369.471"/>
  <polygon points="408.151,450 411.683,450 374.386,375.633"/>
  <polygon points="420.475,450 426.481,450 374.635,361.066"/>
  <polygon points="456.344,450 460.91,450 397.864,362.795"/>
  <polygon points="476.358,450 481.18,450 403.462,355.261"/>
  <polygon points="513.296,450 520.621,450 421.947,351.52"/>
  <polygon points="534.794,450 539.692,450 428.446,347.846"/>
  <polygon points="553.086,450 554.835,450 434.472,344.161"/>
  <polygon points="600,445.035 600,440.481 445.222,330.459"/>
  <polygon points="600,429.293 600,426.194 445.678,323.501"/>
  <polygon points="600,413.944 600,409.437 464.768,327.575"/>
  <polygon points="600,380.72 600,379.717 476.229,316.224"/>
  <polygon points="600,366.958 600,363.818 466.375,302.891"/>
  <polygon points="600,356.045 600,350.905 485.935,304.644"/>
  <polygon points="600,328.495 600,326.967 489.304,289.853"/>
  <polygon points="600,304.966 600,304.035 484.904,274.023"/>
  <polygon points="600,295.812 600,291.965 493.254,269.389"/>
  <polygon points="600,286.082 600,283.496 495.329,263.943"/>
  <polygon points="600,265.569 600,263.782 499.037,251.333"/>
  <polygon points="600,257.639 600,255.289 500.161,246.001"/>
  <polygon points="600,247.303 600,245.395 501.205,239.324"/>
  <polygon points="600,236.475 600,233.019 507.913,231.757"/>
  <polygon points="600,225.132 600,222.04 514.102,223.99"/>
</symbol>

<symbol id="gogogo" viewBox="0 0 451.13 176.63">
  <path d="M45.08,61.21,7.51,64.71C5,54.24,2.61,44.1,0,33.09l58.28,8.32c.84,8.07,1.66,16,2.49,23.89a700.36,700.36,0,0,0,15.61,90.42c1,4.09.14,5.81-3.69,7.43-9.76,4.15-19.3,8.8-29.42,13.48L26.72,137.17l36.37,3.15C57.07,113.87,51.14,87.84,45.08,61.21Z"/>
  <path d="M131.92,133.29c-2.73-20.29-5.38-40-8.07-60.06L93.23,79.31C91.69,71.1,90.17,63,88.57,54.56h49.16c4.24,33,8.47,66.06,12.75,99.49L113,166.72c-2.76-9.89-5.43-19.43-8.27-29.62Z"/>
  <path d="M198.23,98.54h-31.7L170.6,74.1c10.65,2.26,20.78,4.75,31.05,6.44,5.16.85,6.35,2.83,6.46,8,.5,23.62,1.62,47.22,2.54,71.63L177,167.43c-.59-8.29-1.15-16.31-1.74-24.66H200C199.45,128.44,198.87,114.19,198.23,98.54Z"/>
  <path d="M235.55,106.64c.45-5.23.86-10,1.31-15.23l36.47,2c-.89,18.94-1.75,37.5-2.65,56.71l-31.49,9V139.5h23.55c0-9.38.11-18.48-.18-27.57,0-.92-2.4-2.34-3.82-2.54C251.2,108.32,243.61,107.56,235.55,106.64Z"/>
  <path d="M295.55,146.48c1.67-15.29,1.67-15.29,16-15.25,2.46,0,4.93,0,7.69,0,1.19-8.42,2.33-16.44,3.54-25l-23-2c.73-3.62,1.41-6.94,2-9.91h33.21c-2.55,8.43-4.94,15.77-7,23.22-2.19,8-4,16.15-6.12,24.18-.35,1.3-1.68,3.23-2.69,3.32C311.53,145.73,303.74,146,295.55,146.48Z"/>
  <path d="M382.93,97.08c-4.54,13.2-8.81,25.73-13.21,38.2a4.11,4.11,0,0,1-2.51,2c-7.13,2.18-14.29,4.22-22.45,6.59,1.29-4.08,2.06-7.57,3.57-10.71.54-1.13,2.85-1.93,4.39-2,12.06-.52,12.06-.45,15.64-12,1.21-3.94,2.44-7.88,3.88-12.54L351,108.43c2.47-6.57,5.66-10.66,13.07-10.29C370.15,98.45,376.29,97.5,382.93,97.08Z"/>
  <path d="M411.09,114.73l-15-1.22c-.54-8.35-.54-8.41,6.91-8.1,7.23.29,14.46.7,22.41,1.1-4.3,6.38-8.94,11.88-12,18.15-4.6,9.38-11.35,14.93-21.71,16.28a55.13,55.13,0,0,0-7.33,2c1.39-7.36,4.32-12.1,12.11-13.86C407.38,126.61,407.26,126.05,411.09,114.73Z"/>
  <path d="M70.71,5.67c6.15,2.56,8.34,6.3,8,12.88-.64,10.92.13,21.92.3,32.89a8.12,8.12,0,0,1-.44,3.28c-3.84-6.32-8.28-12.14-7.87-20.24.4-7.95-.14-15.95-.22-23.93C70.43,9,70.61,7.38,70.71,5.67Z"/>
  <path d="M64.26,0V39.61c-3.59-1.12-6.52-3-7-8-.62-6.93-2.09-13.79-2.8-20.72-.16-1.55,1-3.6,2.16-4.83C58.52,4.06,60.92,2.59,64.26,0Z"/>
  <path d="M207.87,45.86,219,47.79c-1.5,9-2.94,17.74-4.48,27-2.8-1.29-5.38-2.32-7.77-3.69a3.46,3.46,0,0,1-1.5-2.68C206,61.06,206.91,53.71,207.87,45.86Z"/>
  <path d="M225.4,88.25c-5.9-2.18-8-5.18-6.45-10.63,2-7.12,3.4-14.39,5.17-22.09,4.87,3.82,8,7.27,5.84,13.65C227.92,75.21,226.94,81.59,225.4,88.25Z"/>
  <path d="M296.45,68c-2.25,7.67-3.84,14.67-6.51,21.24-.83,2.06-4.56,2.94-7,4.37-.37-.41-.75-.82-1.13-1.22,2.08-8.64,4.16-17.28,6.39-26.52Z"/>
  <path d="M280.52,64.45C279.76,73,279,81,278.33,89c-8.55-.31-8.74-.54-7.83-8.11.26-2.14.37-4.3.6-6.44C271.91,67,272.14,66.72,280.52,64.45Z"/>
  <path d="M155,27c4.91,1.69,7.49,3.6,6.29,9.38-1.56,7.53-1.75,15.33-2.63,23.95-3.26-4.7-6.44-8.37-5.77-13.84C153.71,40.16,154.31,33.76,155,27Z"/>
  <path d="M149.22,24.31c-.51,8.6-1,16.68-1.49,25-4.34-.33-6.6-2.38-6.6-6.8,0-2.32-.19-4.64-.38-7C140.08,27.12,140.07,27.12,149.22,24.31Z"/>
  <path d="M355.31,75.33c5.13,1.56,4.74.48-1.21,18.8-3.47-1.26-5.12-3-3.32-6.91C352.5,83.46,353.75,79.49,355.31,75.33Z"/>
  <path d="M428.58,103c4.64-10.13,7-11.71,15.13-10.32-3,3.57-5.56,7.24-8.8,10.16C433.78,103.86,431,103,428.58,103Z"/>
  <path d="M435.67,104.89,446.75,93.2c1.27,1,2.31,1.86,4.38,3.51-3.85,3.52-7.24,6.86-10.94,9.81-.87.7-2.77.1-4.19.1Z"/>
  <path d="M407.55,85.5l-8.71,12.37c-4.23-6.18,1.62-8.88,3.52-12.52.56-1.07,3-1.15,4.61-1.67C407.17,84.28,407.36,84.89,407.55,85.5Z"/>
  <path d="M340,91c3.82-5.67,2.53-13.43,10.44-16.13C348.18,83.87,344.26,90.6,340,91Z"/>
  <path d="M399.48,82.82c-3.35,3-2.74,10-9.74,10.31C390.78,84.45,391.19,84,399.48,82.82Z"/>
</symbol>

<symbol id="saitama" viewBox="0 0 628 360"> 
  <polygon style="fill:#0F0;stroke:#000;stroke-width:0.2;stroke-linejoin:round;" 
    points="609,325 606,318 608,303 606,300 606,296 607,288 612,276 611,273 607,257 599,245 593,234 586,229 
    579,215 578,210 574,208 575,201 568,193 570,189 568,177 570,171 569,168 565,164 556,153 552,147 549,135 547,136 547,140 
    545,141 534,137 527,137 525,135 524,124 524,120 517,112 516,107 512,101 510,97 506,83 508,73 505,69 505,68 504,65 501,67 
    499,66 498,62 493,63 491,62 493,60 491,58 486,60 486,69 475,70 473,76 466,69 461,64 455,61 426,73 409,72 408,72 393,74 383,70 
    375,62 371,61 369,57 365,53 356,50 352,44 349,40 345,39 340,35 338,36 336,34 334,34 331,41 325,43 325,44 325,48 321,49 315,46 
    313,40 310,41 300,38 297,37 294,36 294,41 288,39 283,40 279,38 273,32 267,33 267,31 264,29 260,29 247,22 246,21 243,19 229,19 
    226,16 220,25 215,30 217,31 209,44 201,59 193,69 193,76 189,78 190,89 193,93 192,95 192,97 185,97 182,100 181,112 177,113 
    174,111 173,108 171,110 169,108 166,110 163,109 164,111 161,114 158,114 154,120 149,119 146,114 143,113 141,114 139,123 
    139,126 132,133 126,137 119,133 116,135 110,135 104,139 95,142 90,148 84,150 82,156 77,161 76,164 75,165 75,168 59,171 56,173 
    51,168 47,167 38,169 35,180 32,184 29,187 28,190 24,194 19,195 17,200 16,208 17,212 19,213 21,216 24,217 26,225 30,228 29,236 
    26,241 24,242 25,243 24,247 27,250 29,249 35,252 37,251 42,253 49,253 55,257 56,268 64,271 67,276 72,274 73,274 76,276 80,275 
    84,273 88,275 90,279 91,278 95,279 99,285 103,286 106,289 107,290 109,286 116,282 123,285 126,283 132,281 132,278 133,275 
    133,273 144,266 150,262 153,265 161,263 166,255 170,254 179,260 185,266 195,271 198,270 198,269 202,269 206,272 211,274 
    234,276 240,280 242,284 243,284 255,289 262,290 264,287 267,286 276,293 280,290 282,293 287,292 291,293 299,291 301,290 
    303,293 306,292 308,294 312,294 313,301 318,300 319,304 318,306 323,317 326,319 327,320 334,318 336,319 346,320 345,324 
    348,328 346,329 350,328 352,331 351,333 350,334 351,335 353,337 357,336 357,338 360,337 363,334 371,336 372,335 379,336 
    380,334 382,336 390,334 392,332 398,330 403,327 406,328 409,327 410,328 411,326 418,324 418,322 423,322 432,311 435,314 
    434,317 430,320 433,323 433,328 428,331 423,333 420,337 435,331 434,343 435,344 439,343 439,341 443,339 447,338 446,336 
    453,333 456,328 459,328 460,329 464,331 461,332 461,334 469,333 470,336 473,335 474,328 474,327 481,321 482,316 485,316 
    491,315 501,316 507,314 510,316 511,316 515,320 522,320 524,323 529,321 531,322 531,327 535,325 535,323 539,323 542,318 
    542,316 537,309 540,307 542,307 546,304 548,304 552,310 561,311 563,309 569,309 572,308 572,305 574,308 572,314 572,316 
    575,319 581,314 585,317 590,320 591,318 599,316 600,319 598,322 600,326 606,324 "/>
</symbol>
</svg>